PathFileType	4	(X/Y/Z)	pose_F01_0-96.trc
DataRate	CameraRate	NumFrames	NumMarkers	Units	OrigDataRate	OrigDataStartFrame	OrigNumFrames
30	30	8	21	m	30	60	96
Frame#	Time	CHip			RHip			RKnee			RAnkle			RBigToe			RSmallToe			RHeel			LHip			LKnee			LAnkle			LBigToe			LSmallToe			LHeel			Neck			Nose			RShoulder			RElbow			RWrist			LShoulder			LElbow			LWrist			
		X1	Y1	Z1	X2	Y2	Z2	X3	Y3	Z3	X4	Y4	Z4	X5	Y5	Z5	X6	Y6	Z6	X7	Y7	Z7	X8	Y8	Z8	X9	Y9	Z9	X10	Y10	Z10	X11	Y11	Z11	X12	Y12	Z12	X13	Y13	Z13	X14	Y14	Z14	X15	Y15	Z15	X16	Y16	Z16	X17	Y17	Z17	X18	Y18	Z18	X19	Y19	Z19	X20	Y20	Z20	X21	Y21	Z21	
60	2.0	-0.10853115361537011	1.8609555969881066	-0.47874238117132806	-0.12226190512996166	1.856692852347825	-0.421651446446221	-0.15024265649529203	1.7203682788321528	-0.40417609144944394	-0.12766147624658136	1.6056537549410674	-0.3644695238657362							-0.11134327324395182	1.5932451522880036	-0.35343387562255824	-0.09338335609494668	1.863057251844061	-0.5442825054545495	-0.12658612113570147	1.733814575653669	-0.5756521847415147	-0.10621379862119532	1.5996205752466452	-0.5711669695683382	-0.13156761684607787	1.5683386340633985	-0.6000186578773343	-0.11508116470856278	1.573559907198603	-0.6218038560317432	-0.09679937851877475	1.5917254871421878	-0.5544093608620324	-0.13419949042954854	2.010753682240582	-0.5027635858564798	-0.1761531636718847	2.058057105276458	-0.5299009375410111	-0.15003114471166404	2.006835724206181	-0.4196462534289946	-0.15213107199120027	1.92582272526635	-0.3617361923701579	-0.18255889774375558	1.8553363767658904	-0.3027029455744712	-0.11710039584668373	2.0160876883483176	-0.5889950292378081	-0.13843423516917922	1.9753802440198236	-0.6069670945304978	-1.658469570474556	1.8916742582315687	1.0156815236587744
61	2.033333333333333	-0.10907128411924748	1.859620446562031	-0.4816756365675616	-0.12302771747299941	1.8554599461845642	-0.4245805366754433	-0.15164768135826062	1.72131617519523	-0.4070716736685419	-0.12766147624658136	1.6056537549410674	-0.3644695238657362							-0.11392637514859998	1.5967622437520563	-0.35130334271041763	-0.09465532569556279	1.8629749755086085	-0.5508935517138238	-0.1264618847314369	1.7351129828974172	-0.5761212281579224	-0.101470493252712	1.6025688976976413	-0.5770680422797178	-0.13239736052700338	1.5682288366041814	-0.6032858258753876	-0.11493344701772784	1.572600078393112	-0.6221412462692151	-0.0930875826057358	1.5933689278556475	-0.5629490997220539	-0.13513757782629135	2.012196743970901	-0.5064629864381194	-0.17602688358701965	2.0658150888754	-0.5326436775202295	-0.15003613420230624	2.0068313596656755	-0.419693283536832	-0.152274904017767	1.9247121063849448	-0.36163269255625874	-0.18012446984087488	1.8455022796882488	-0.28508312426383287	-0.11863767497871237	2.0201185745125487	-0.5958202071666081	-1.5735154963922309	1.8807163463742012	0.8839122982458321	-0.1731869648913398	1.9985907897550645	-0.6000718804711693
62	2.066666666666667	-0.10576518506494595	1.8601117022585536	-0.4866593145192169	-0.12148248837800334	1.855696345236294	-0.42715812996401	-0.15376125493399467	1.7226740171815658	-0.4047816274789055	-0.12766147624658136	1.6056537549410674	-0.3644695238657362							-0.11361119156121316	1.5948215158468348	-0.35113049165083876	-0.09408514807411825	1.8634188746653477	-0.5566709199703327	-0.1316407902616405	1.7349346268158903	-0.5747112812959297	-0.09638934208056925	1.6029776055153995	-0.5866106385427061	-0.12945148166537024	1.569071155766085	-0.6023115732295	-0.1131297277465871	1.5749708713700152	-0.6242311619055069	-0.08519617506064882	1.5947475434675153	-0.5715549539004865	-0.13337859293368184	2.009963982305125	-0.5088683234158764	-0.17403698859039307	2.06745601930967	-0.5354168015309392	-0.14844495223052662	2.0037159393117214	-0.42205896392658465	-0.14870145963567968	1.921383599088675	-0.36549178563461354	-0.17728215357423918	1.8410391421533632	-0.2829449021240348	-0.11889125337895438	2.0165670834520997	-0.5960936515664057	-0.15571962585270996	1.9666767596466281	-0.6490918310860125	-0.17412747340564502	2.0158623028638356	-0.5973647546560686
63	2.1	-0.10630876614179442	1.8538768445959553	-0.49795847857535214	-0.11988191304174302	1.8505756909404523	-0.42883617954791237	-0.15379919838108735	1.717279408204545	-0.40404433720096783	-0.12766147624658136	1.6056537549410674	-0.3644695238657362							-0.11343315401498134	1.594240124833887	-0.3511246401142808	-0.09288789926489191	1.8545973604879573	-0.5609505058889926	-0.13309948992782625	1.7309512350357652	-0.5769968332877828	-0.09885140853498145	1.6019445936999055	-0.5872877860261999	-0.12783102580982422	1.5660221743935652	-0.6114463602982039	-0.2596345295091086	1.5073335819904248	-1.2089417736629204	-0.08536898080080049	1.5944863331343446	-0.5752413751279827	-0.13437879223872462	2.006318177257955	-0.5116962400981359	-0.17412484205807652	2.065513745057237	-0.5358004811842232	-0.14956366249035125	1.9989720002139277	-0.4248379033717518	-0.14812027877963294	1.9165989436432602	-0.37067174584457385	-0.1704571647685311	1.8473214635658157	-0.29297677030505465	-0.11797424782521079	2.0130121424342806	-0.6017137952257124	-0.15638347926956947	1.9669568283328656	-0.6610846436001057	-0.1744821787808549	2.017437270815084	-0.5989276774997688
64	2.1333333333333333	-0.10226287501835561	1.8428160050850768	-0.5098067839932272	-0.11381520029297854	1.839425477190271	-0.4427102279127713	-0.15509750701018452	1.716311037037172	-0.40733164705974473	-0.12766147624658136	1.6056537549410674	-0.3644695238657362							-0.11370327564851143	1.5953524664906826	-0.3513164028702537	-0.08967892293109733	1.8483980605291652	-0.568084526256732	-0.13253163521110975	1.7296796149557943	-0.5858721831510955	-0.1003236767474353	1.5966308089939285	-0.5938607014571259	-0.1304403808120732	1.5653836905802554	-0.6216211496816312	-0.25742873065122607	1.5033688096141804	-1.1985752890772845	-0.09462247389032531	1.5930387313365257	-0.5910695345731317	-0.13646638853510112	1.9964120265353673	-0.5259339797491663	-0.17025743335028712	2.059497469596693	-0.549417837377987	-0.14990033894544993	1.98752853929887	-0.44039500437161305	-0.14473893079014244	1.9065096852567947	-0.37343874276854866	-0.17005459285149357	1.8388027148722221	-0.2881069477081194	-0.12101444611315094	2.004649463551658	-0.6110273141344563	-0.15876172262676555	1.954817397421947	-0.6662546535594223	-0.17254915199346094	2.0139600635603223	-0.6206669812296957
65	2.1666666666666665	-0.09709706465850135	1.836718834759994	-0.5193150438110462	-0.11078963436412943	1.8331269492282147	-0.4587296053828349	-0.1580825985072052	1.7138820490944244	-0.4262500518570314	-0.12766147624658136	1.6056537549410674	-0.3644695238657362							-0.11425219620508634	1.5956754587036237	-0.3529840227983582	-0.08032619539054069	1.8410846814684445	-0.582123110210144	-0.13591763010605576	1.7232920575288424	-0.5984875306363683	-0.10253107016119734	1.5941743761647813	-0.6042481852924776	-0.13223115093166968	1.5629375061538802	-0.6279658366980868	-0.2543588094935945	1.5027833958529637	-1.1989749510015972	-0.09253616152585296	1.5902245610396355	-0.5931070640568517	-0.1414487374957136	1.9811931305429746	-0.5305709511831364	-0.1761285174223525	2.0456623722242693	-0.5653714102449776	-2.0947156539948697	1.9065917709588214	1.8083814422841507	-0.14777708604434897	1.8938730235678498	-0.38105301041723305	-0.16631739955846062	1.824636546711722	-0.28973851650461185	-0.12169194547326118	1.9899895548757351	-0.6203811598310032	-1.4751272853121067	1.8674630968920545	0.7282645868513944	-0.8160741612271531	1.9413212098777155	0.03632685570222027
66	2.2	-0.09342391857420498	1.826277994499218	-0.525754184053803	-0.11013377765803742	1.8233339414166814	-0.4661748352895557	-0.15703972754606735	1.7112812020579904	-0.4316237329620662	-0.12766147624658136	1.6056537549410674	-0.3644695238657362							-0.11480111676166123	1.5959984509165648	-0.35465164272646277	-0.07866040372601699	1.82822078228106	-0.585970531221189	-0.13490715030333442	1.7219990954855022	-0.6037295916430973	-0.09964560383565103	1.5945837186698	-0.6031847891749003	-0.12917120758440764	1.5652047142586862	-0.6275619428681641	-0.25521865052442366	1.5018318910253747	-1.2022545658231056	-0.09041400875272203	1.5905725455533173	-0.5953214402798205	-0.14501016748399204	1.9695844687718584	-0.540441424910232	-0.1886781118672191	2.029339604275267	-0.5573089618136305	-0.15952687426750647	1.9643856727299385	-0.4585367033355699	-0.145673860210975	1.881658232828943	-0.39853021923489107	-0.15513422929039095	1.8096119197010396	-0.30048473744150467	-0.12646922236125913	1.9749847018848847	-0.6242436632352322	-1.4864653932517287	1.8571455972041002	0.7551399620923737	-1.4595991704608453	1.868682356195109	0.6933206926341362
67	2.2333333333333334	-0.0932407011001352	1.8275048671705734	-0.5261494070944448	-0.10790291153226746	1.82332510174342	-0.46859430511632816	-0.15572896530805996	1.7092428479213118	-0.4374259212857216	-0.12766147624658136	1.6056537549410674	-0.3644695238657362							-0.11480111676166123	1.5959984509165648	-0.35465164272646277	-0.07914805731409318	1.830770366083846	-0.5898015750418921	-0.13442085295625408	1.7208322304815786	-0.6043485253406014	-0.09963511364657436	1.59460009100607	-0.6031839842150599	-0.12995963829295892	1.564672408902238	-0.6308470061244067	-0.11460804425572012	1.5678253263519346	-0.6466247523717924	-0.0905671105283053	1.5889918233669864	-0.5947762030314322	-0.14578281258736567	1.9648858869403085	-0.551594461177316	-0.19302506742048797	2.027532323850351	-0.5713405241524948	-0.1578701578683179	1.9561251355751033	-0.46866605110835047	-0.14668484756649086	1.875118732466196	-0.4008793443651425	-0.15408626811508735	1.8025034632250312	-0.32345610363388144	-1.6742585666674807	1.8849249799136356	1.051772737648482	-0.15040301063496522	1.903602404480061	-0.7057256597942515	-0.21043445391172622	1.9588481741813923	-0.6807892139588124
